#!OML:ASF C:\Vicon Data\Big\jianyuan-13\jianyuan\Session 1\Capture.male.ASF
:FULLY-SPECIFIED
:DEGREES
209
root -9.123237 17.411545 -10.814357 7.419341 -0.436822 4.740887
lowerback -9.575466 -1.125779 -5.689172 
upperback 3.362521 -0.659303 -1.124633 
thorax 9.045418 -0.605565 1.887601 
lowerneck -3.157398 -2.320045 1.884859 
upperneck 24.151775 -2.956391 -2.036384 
head 7.888399 -1.408115 -1.216680 
rclavicle 0.000000 0.000000 
rhumerus -36.967505 -20.206120 -77.397295 
rradius 27.734911 
rwrist 34.170715 
rhand -18.029922 -16.925022 
rfingers 0.000000 
rthumb 8.241467 -46.744286 
lclavicle 0.000000 0.000000 
lhumerus -17.842799 23.743357 91.352602 
lradius 29.057452 
lwrist -48.499687 
lhand -23.172958 2.886428 
lfingers 0.000000 
lthumb 3.276053 32.840997 
rfemur -39.023259 14.708826 4.050044 
rtibia 45.426496 
rfoot -10.277205 0.396232 
rtoes -30.138976 
lfemur -10.921291 -6.001965 -30.638785 
ltibia 19.274619 
lfoot -9.606634 -9.068236 
ltoes -19.828483 
210
root -9.127665 17.412292 -10.759881 7.317515 -0.302586 4.771590
lowerback -9.470939 -1.201986 -5.767489 
upperback 3.389444 -0.760752 -1.087314 
thorax 9.024104 -0.660392 1.954619 
lowerneck -3.127219 -2.273301 1.819736 
upperneck 24.177145 -2.887494 -2.019861 
head 7.894298 -1.379525 -1.195031 
rclavicle 0.000000 0.000000 
rhumerus -37.137126 -20.619604 -77.037869 
rradius 27.488750 
rwrist 34.637601 
rhand -18.131579 -16.751405 
rfingers 0.000000 
rthumb 8.143302 -46.574487 
lclavicle 0.000000 0.000000 
lhumerus -17.600161 21.798893 92.010261 
lradius 29.968987 
lwrist -46.702471 
lhand -23.121392 3.156046 
lfingers 0.000000 
lthumb 3.325841 33.109850 
rfemur -39.013193 15.075768 3.842731 
rtibia 44.442880 
rfoot -9.964979 1.130515 
rtoes -29.979665 
lfemur -10.468102 -6.109819 -30.670867 
ltibia 19.048499 
lfoot -9.544295 -9.087232 
ltoes -19.290520 
211
root -9.130913 17.415937 -10.710830 7.294562 -0.051892 4.728891
lowerback -9.372141 -1.310114 -5.734104 
upperback 3.387194 -0.920059 -1.053979 
thorax 8.976279 -0.735628 1.945311 
lowerneck -3.132438 -2.223560 1.869887 
upperneck 24.224388 -2.813971 -2.068426 
head 7.910924 -1.344516 -1.215017 
rclavicle 0.000000 0.000000 
rhumerus -37.295737 -20.496981 -76.993214 
rradius 27.468992 
rwrist 34.407977 
rhand -18.211688 -16.878025 
rfingers 0.000000 
rthumb 8.066067 -46.704013 
lclavicle 0.000000 0.000000 
lhumerus -17.266571 20.452331 92.533025 
lradius 30.605243 
lwrist -45.395108 
lhand -23.073659 3.125542 
lfingers 0.000000 
lthumb 3.371983 33.078599 
rfemur -39.103870 15.297051 3.695542 
rtibia 43.478773 
rfoot -9.645830 1.841025 
rtoes -29.041788 
lfemur -10.114343 -6.308498 -30.611045 
ltibia 18.785756 
lfoot -9.516884 -9.086095 
ltoes -19.344998 
212
root -9.133509 17.416613 -10.655495 7.304218 -0.040055 4.690618
lowerback -9.380828 -1.317445 -5.701210 
upperback 3.377906 -0.934695 -1.044746 
thorax 8.971634 -0.740892 1.934211 
lowerneck -3.138899 -2.214809 1.922939 
upperneck 24.263538 -2.806246 -2.076939 
head 7.924465 -1.336775 -1.226967 
rclavicle 0.000000 0.000000 
rhumerus -37.479901 -20.428729 -76.872900 
rradius 27.434582 
rwrist 34.190619 
rhand -18.157331 -17.040629 
rfingers 0.000000 
rthumb 8.118505 -46.864603 
lclavicle 0.000000 0.000000 
lhumerus -16.764749 19.834362 93.005682 
lradius 30.837232 
lwrist -44.865670 
lhand -23.228422 2.871522 
lfingers 0.000000 
lthumb 3.222499 32.826899 
rfemur -39.248065 15.499116 3.643057 
rtibia 42.534823 
rfoot -9.287978 2.567550 
rtoes -29.669496 
lfemur -9.791894 -6.258282 -30.575252 
ltibia 18.533347 
lfoot -9.462315 -9.154698 
ltoes -19.036118 
213
root -9.137364 17.417753 -10.599693 7.325334 -0.034811 4.694270
lowerback -9.439920 -1.345627 -5.744288 
upperback 3.388992 -0.964227 -1.018794 
thorax 9.022512 -0.759819 1.979738 
lowerneck -3.144939 -2.186121 1.919757 
upperneck 24.270615 -2.769657 -2.062941 
head 7.929041 -1.318511 -1.219314 
rclavicle 0.000000 0.000000 
rhumerus -37.602182 -20.578676 -76.666501 
rradius 27.301452 
rwrist 34.479396 
rhand -18.115896 -17.103969 
rfingers 0.000000 
rthumb 8.158502 -46.926430 
lclavicle 0.000000 0.000000 
lhumerus -16.271632 19.019979 93.491618 
lradius 31.167146 
lwrist -44.066218 
lhand -23.217698 2.718447 
lfingers 0.000000 
lthumb 3.232839 32.673678 
rfemur -39.387397 15.620746 3.591048 
rtibia 41.625113 
rfoot -9.051114 3.163137 
rtoes -29.848631 
lfemur -9.480610 -6.170438 -30.579646 
ltibia 18.287545 
lfoot -9.438199 -9.242006 
ltoes -18.827724 
214
root -9.140052 17.419265 -10.544713 7.310955 0.031491 4.690572
lowerback -9.441840 -1.404995 -5.774821 
upperback 3.396184 -1.043428 -0.970401 
thorax 9.039880 -0.802052 2.034517 
lowerneck -3.127106 -2.155800 1.836092 
upperneck 24.283856 -2.724377 -2.035022 
head 7.933061 -1.301913 -1.192486 
rclavicle 0.000000 0.000000 
rhumerus -37.777683 -20.828588 -76.364446 
rradius 27.175290 
rwrist 34.895264 
rhand -18.076272 -17.032260 
rfingers 0.000000 
rthumb 8.196698 -46.853255 
lclavicle 0.000000 0.000000 
lhumerus -15.997181 17.839626 93.963568 
lradius 31.811308 
lwrist -42.922472 
lhand -23.166335 2.679676 
lfingers 0.000000 
lthumb 3.282427 32.634139 
rfemur -39.446290 15.659190 3.591635 
rtibia 40.725748 
rfoot -8.722168 3.694326 
rtoes -30.477481 
lfemur -9.149733 -6.191007 -30.578636 
ltibia 18.091851 
lfoot -9.448752 -9.297795 
ltoes -18.577624 
215
root -9.145316 17.418104 -10.488101 7.277078 0.091118 4.655154
lowerback -9.447669 -1.451397 -5.754794 
upperback 3.416482 -1.109000 -0.946415 
thorax 9.070915 -0.834531 2.036927 
lowerneck -3.085854 -2.119497 1.820311 
upperneck 24.265495 -2.674799 -2.021971 
head 7.920936 -1.278856 -1.180969 
rclavicle 0.000000 0.000000 
rhumerus -37.927747 -21.009661 -76.168213 
rradius 27.087909 
rwrist 34.915308 
rhand -18.123297 -16.957397 
rfingers 0.000000 
rthumb 8.151348 -46.780168 
lclavicle 0.000000 0.000000 
lhumerus -15.674707 16.829586 94.344486 
lradius 32.329489 
lwrist -42.133342 
lhand -23.083884 2.565247 
lfingers 0.000000 
lthumb 3.362071 32.518454 
rfemur -39.414397 15.598207 3.731566 
rtibia 39.836212 
rfoot -8.478521 4.057255 
rtoes -30.968920 
lfemur -8.807076 -6.277290 -30.537369 
ltibia 17.933382 
lfoot -9.522424 -9.291218 
ltoes -18.000826 
216
root -9.150759 17.415686 -10.433986 7.274763 0.205150 4.637229
lowerback -9.451190 -1.523485 -5.758122 
upperback 3.434929 -1.205777 -0.926659 
thorax 9.101827 -0.883232 2.042432 
lowerneck -3.134365 -2.082324 1.922291 
upperneck 24.277339 -2.607374 -2.153032 
head 7.931175 -1.250004 -1.237631 
rclavicle 0.000000 0.000000 
rhumerus -38.043270 -21.200772 -76.044230 
rradius 26.995569 
rwrist 35.004521 
rhand -18.196665 -16.917797 
rfingers 0.000000 
rthumb 8.080534 -46.743258 
lclavicle 0.000000 0.000000 
lhumerus -15.284181 15.985408 94.721021 
lradius 32.775720 
lwrist -41.367824 
lhand -23.214758 2.602527 
lfingers 0.000000 
lthumb 3.235709 32.557684 
rfemur -39.399211 15.444893 3.884507 
rtibia 38.971057 
rfoot -8.332628 4.317939 
rtoes -31.482562 
lfemur -8.513072 -6.283011 -30.502967 
ltibia 17.775525 
lfoot -9.534824 -9.408469 
ltoes -17.954979 
217
root -9.157261 17.417042 -10.376189 7.268286 0.268903 4.572240
lowerback -9.460328 -1.565655 -5.726550 
upperback 3.438386 -1.268313 -0.895135 
thorax 9.115925 -0.913129 2.047132 
lowerneck -3.173081 -2.068108 1.889723 
upperneck 24.319745 -2.606350 -2.058115 
head 7.954716 -1.243875 -1.201813 
rclavicle 0.000000 0.000000 
rhumerus -38.202707 -21.638933 -75.788306 
rradius 26.863944 
rwrist 35.480603 
rhand -18.140035 -16.906131 
rfingers 0.000000 
rthumb 8.135160 -46.729558 
lclavicle 0.000000 0.000000 
lhumerus -15.018525 14.866086 95.133513 
lradius 33.408485 
lwrist -40.235347 
lhand -23.045233 2.781699 
lfingers 0.000000 
lthumb 3.399408 32.734315 
rfemur -39.402533 15.234919 4.161272 
rtibia 38.147324 
rfoot -8.293439 4.472347 
rtoes -32.210050 
lfemur -8.194488 -6.193595 -30.418768 
ltibia 17.592975 
lfoot -9.526110 -9.564444 
ltoes -17.983279 
218
root -9.161994 17.416854 -10.315359 7.274340 0.285969 4.586511
lowerback -9.486110 -1.619005 -5.774990 
upperback 3.413985 -1.335326 -0.861842 
thorax 9.112433 -0.948918 2.097906 
lowerneck -3.120763 -2.040151 1.828008 
upperneck 24.345316 -2.562684 -2.046440 
head 7.955924 -1.227542 -1.183866 
rclavicle 0.000000 0.000000 
rhumerus -38.450575 -21.818135 -75.557177 
rradius 26.823786 
rwrist 35.838973 
rhand -18.080276 -16.972118 
rfingers 0.000000 
rthumb 8.192843 -46.793334 
lclavicle 0.000000 0.000000 
lhumerus -14.799510 13.884342 95.501263 
lradius 33.992058 
lwrist -39.167010 
lhand -22.959101 2.742000 
lfingers 0.000000 
lthumb 3.482582 32.693298 
rfemur -39.400554 15.033198 4.340644 
rtibia 37.363965 
rfoot -8.170548 4.625020 
rtoes -32.630569 
lfemur -7.830076 -6.154381 -30.434908 
ltibia 17.314307 
lfoot -9.536641 -9.632112 
ltoes -17.863965 
